<svg xmlns="http://www.w3.org/2000/svg" viewBox="0 0 6329.8 2199.6">

  <defs>
    <linearGradient id="azlo-z-gradient" x1="380" y1="1410" x2="1190" y2="760" gradientUnits="userSpaceOnUse">
      <stop offset="0" stop-color="#0A5E9C"/>
      <stop offset="1" stop-color="#052B57"/>
    </linearGradient>
    <linearGradient id="azlo-arc-gradient" x1="0" y1="1010" x2="1500" y2="920" gradientUnits="userSpaceOnUse">
      <stop offset="0" stop-color="#0A5E9C"/>
      <stop offset="0.52" stop-color="#00AFCB"/>
      <stop offset="1" stop-color="#35D3E6"/>
    </linearGradient>
    <linearGradient id="azlo-star-gradient" x1="690" y1="490" x2="850" y2="730" gradientUnits="userSpaceOnUse">
      <stop offset="0" stop-color="#35D3E6"/>
      <stop offset="1" stop-color="#00AFCB"/>
    </linearGradient>
  </defs>
  <!-- AZLO assinatura completa 100% vetorial: simbolo, wordmark, tagline e filetes em paths/linhas nativos. -->
  <g id="azlo-symbol-vector" transform="translate(188,188)">
    <path fill="#052B57" fill-rule="evenodd" d="
      M750 0 L1500 925 L1260 860 L750 225 L240 860 L0 925 Z
      M750 405 L1045 780 L890 755 L750 565 L610 755 L455 780 Z"/>
    <path fill="url(#azlo-z-gradient)" d="M455 1010 L910 1010 L360 1538 L1100 1538 L1258 1388 L710 1388 L1260 860 L935 810 Z"/>
    <path fill="url(#azlo-arc-gradient)" d="
      M-35 1095
      C350 885 790 822 1186 880
      C1308 898 1422 932 1515 980
      L1515 1085
      C1405 1028 1288 990 1163 969
      C760 903 328 968 -35 1228 Z"/>
    <path fill="url(#azlo-star-gradient)" d="
      M750 424 L782 642 L924 675 L782 708 L750 926 L718 708 L576 675 L718 642 Z"/>
  </g>
  <!-- Wordmark AZLO: paths vetoriais reaproveitados da entrega corrigida. -->
<g transform="translate(2061.60,1447.60) scale(1,-1)" fill="#052B57">
    <path d="M13 0 254 730H519L769 0H599L397 617L449 596H320L374 617L177 0ZM196 181 246 317H532L583 181Z"/> <path d="M902 0V123L1282 591L1285 571L1253 613L1275 596H915V730H1476V607L1095 139L1091 161L1125 116L1101 135H1476V0Z"/> <path d="M1607 0V730H1771V0ZM1751 0V144H2057V0Z"/> <path d="M2579 -19Q2480 -19 2406.5 15.5Q2333 50 2285.0 106.5Q2237 163 2213.5 229.0Q2190 295 2190 356V378Q2190 446 2214.5 512.5Q2239 579 2288.0 633.0Q2337 687 2410.0 719.5Q2483 752 2579 752Q2675 752 2748.0 719.5Q2821 687 2870.0 633.0Q2919 579 2944.0 512.5Q2969 446 2969 378V356Q2969 295 2945.0 229.0Q2921 163 2873.0 106.5Q2825 50 2751.5 15.5Q2678 -19 2579 -19ZM2579 134Q2631 134 2672.5 152.0Q2714 170 2743.5 202.0Q2773 234 2788.0 276.0Q2803 318 2803 366Q2803 417 2787.5 459.5Q2772 502 2742.5 533.5Q2713 565 2672.0 582.0Q2631 599 2579 599Q2527 599 2486.0 582.0Q2445 565 2415.5 533.5Q2386 502 2371.0 459.5Q2356 417 2356 366Q2356 318 2371.0 276.0Q2386 234 2415.5 202.0Q2445 170 2486.0 152.0Q2527 134 2579 134Z"/>
  </g>
  <!-- Tagline: paths vetoriais, baseline unica por construcao. -->
<g transform="translate(2061.60,2008.90) scale(0.20802,-0.20802)" fill="#0A5E9C">
    <path d="M14 0 285 697H364L634 0H523L325 549L126 0ZM174 155 205 246H443L477 155Z"/> <path d="M779 0V697H881V91H1188V0Z"/> <path d="M1332 0V697H1547Q1662 697 1721.5 647.0Q1781 597 1781 498Q1781 400 1721.0 348.0Q1661 296 1547 296H1433V0ZM1433 386H1537Q1604 386 1642.0 412.5Q1680 439 1680 497Q1680 554 1643.5 580.0Q1607 606 1537 606H1433Z"/> <path d="M1944 0V697H2046V405H2375V697H2477V0H2375V310H2046V0Z"/> <path d="M2621 0 2892 697H2971L3241 0H3130L2932 549L2733 0ZM2781 155 2812 246H3050L3084 155Z"/> <path d="M3657 0V85L4070 637L4084 606H3680V697H4172V612L3767 72L3754 91H4184V0Z"/> <path d="M4346 0V697H4807V606H4448V402H4777V311H4448V91H4807V0Z"/> <path d="M4984 0V697H5090L5437 132H5413V697H5514V0H5406L5062 566H5086V0Z"/> <path d="M5719 0V697H5821V0Z"/> <path d="M6193 0V606H5965V697H6523V606H6296V0Z"/> <path d="M6667 0V697H6769V405H7098V697H7200V0H7098V310H6769V0Z"/> <path d="M7720 0V697H7822V91H8129V0Z"/> <path d="M8273 0V697H8375V0Z"/> <path d="M8580 0V697H9040V606H8682V402H8993V311H8682V0Z"/> <path d="M9198 0V697H9659V606H9300V402H9629V311H9300V91H9659V0Z"/> <path d="M10448 -13Q10351 -13 10277.5 32.0Q10204 77 10163.0 158.5Q10122 240 10122 348Q10122 457 10163.0 538.5Q10204 620 10277.5 665.0Q10351 710 10448 710Q10547 710 10621.0 665.0Q10695 620 10736.0 538.5Q10777 457 10777 348Q10777 240 10735.5 158.5Q10694 77 10620.0 32.0Q10546 -13 10448 -13ZM10448 84Q10518 84 10568.0 116.5Q10618 149 10646.0 208.5Q10674 268 10674 348Q10674 429 10646.0 488.5Q10618 548 10568.0 580.5Q10518 613 10448 613Q10380 613 10329.5 581.0Q10279 549 10251.5 489.5Q10224 430 10224 348Q10224 267 10251.5 207.5Q10279 148 10329.5 116.0Q10380 84 10448 84Z"/> <path d="M10954 0V697H11169Q11284 697 11343.5 647.0Q11403 597 11403 498Q11403 400 11343.0 348.0Q11283 296 11169 296H11055V0ZM11055 386H11159Q11226 386 11264.0 412.5Q11302 439 11302 497Q11302 554 11265.5 580.0Q11229 606 11159 606H11055Z"/> <path d="M11733 0V606H11505V697H12063V606H11836V0Z"/> <path d="M12207 0V697H12309V0Z"/> <path d="M12514 0V697H12664L12871 161H12853L13060 697H13209V0H13107V579L13116 577L12911 60H12812L12607 577L12616 579V0Z"/> <path d="M13414 0V697H13516V0Z"/> <path d="M13677 0V85L14090 637L14104 606H13700V697H14192V612L13787 72L13774 91H14204V0Z"/> <path d="M14305 0 14576 697H14655L14925 0H14814L14616 549L14417 0ZM14465 155 14496 246H14734L14768 155Z"/> <path d="M15237 0V606H15009V697H15567V606H15340V0Z"/> <path d="M15711 0V697H15813V0Z"/> <path d="M16315 -13Q16218 -13 16144.5 32.0Q16071 77 16030.0 158.5Q15989 240 15989 348Q15989 457 16030.0 538.5Q16071 620 16144.5 665.0Q16218 710 16315 710Q16414 710 16488.0 665.0Q16562 620 16603.0 538.5Q16644 457 16644 348Q16644 240 16602.5 158.5Q16561 77 16487.0 32.0Q16413 -13 16315 -13ZM16315 84Q16385 84 16435.0 116.5Q16485 149 16513.0 208.5Q16541 268 16541 348Q16541 429 16513.0 488.5Q16485 548 16435.0 580.5Q16385 613 16315 613Q16247 613 16196.5 581.0Q16146 549 16118.5 489.5Q16091 430 16091 348Q16091 267 16118.5 207.5Q16146 148 16196.5 116.0Q16247 84 16315 84Z"/> <path d="M16821 0V697H16927L17274 132H17250V697H17351V0H17243L16899 566H16923V0Z"/>
  </g>
  <!-- Filetes da tagline. -->
  <line x1="1587.84" y1="1936.40" x2="1926.24" y2="1936.40" stroke="#0A5E9C" stroke-width="3"/>
  <line x1="5803.44" y1="1936.40" x2="6141.84" y2="1936.40" stroke="#0A5E9C" stroke-width="3"/>
</svg>
