<svg xmlns="http://www.w3.org/2000/svg" viewBox="0 0 3011.0 1000">
  <g transform="translate(0,1000) scale(1,-1)">
    <path d="M13 0 254 730H519L769 0H599L397 617L449 596H320L374 617L177 0ZM196 181 246 317H532L583 181Z" fill="#052B57"/>
    <path d="M902 0V123L1282 591L1285 571L1253 613L1275 596H915V730H1476V607L1095 139L1091 161L1125 116L1101 135H1476V0Z" fill="#052B57"/>
    <path d="M1607 0V730H1771V0ZM1751 0V144H2057V0Z" fill="#052B57"/>
    <path d="M2579 -19Q2480 -19 2406.5 15.5Q2333 50 2285.0 106.5Q2237 163 2213.5 229.0Q2190 295 2190 356V378Q2190 446 2214.5 512.5Q2239 579 2288.0 633.0Q2337 687 2410.0 719.5Q2483 752 2579 752Q2675 752 2748.0 719.5Q2821 687 2870.0 633.0Q2919 579 2944.0 512.5Q2969 446 2969 378V356Q2969 295 2945.0 229.0Q2921 163 2873.0 106.5Q2825 50 2751.5 15.5Q2678 -19 2579 -19ZM2579 134Q2631 134 2672.5 152.0Q2714 170 2743.5 202.0Q2773 234 2788.0 276.0Q2803 318 2803 366Q2803 417 2787.5 459.5Q2772 502 2742.5 533.5Q2713 565 2672.0 582.0Q2631 599 2579 599Q2527 599 2486.0 582.0Q2445 565 2415.5 533.5Q2386 502 2371.0 459.5Q2356 417 2356 366Q2356 318 2371.0 276.0Q2386 234 2415.5 202.0Q2445 170 2486.0 152.0Q2527 134 2579 134Z" fill="#052B57"/>
  </g>
</svg>